<svg xmlns="http://www.w3.org/2000/svg" xmlns:xlink="http://www.w3.org/1999/xlink" width="816" height="11in" viewBox="0 0 215.9 279.4"><defs><linearGradient id="prefix__H"><stop offset="0"/><stop offset="1" stop-opacity="0"/></linearGradient><linearGradient id="prefix__G"><stop offset="0" stop-color="#e4c440"/><stop offset="1" stop-color="#e4c440" stop-opacity="0"/></linearGradient><linearGradient id="prefix__F"><stop offset="0" stop-color="#a49450"/><stop offset="1" stop-color="#a49450" stop-opacity="0"/></linearGradient><linearGradient id="prefix__E"><stop offset="0" stop-color="#a05a2c"/><stop offset="1" stop-color="#a05a2c" stop-opacity="0"/></linearGradient><linearGradient id="prefix__D"><stop offset="0" stop-color="#a05a2c"/><stop offset="1" stop-color="#a05a2c" stop-opacity="0"/></linearGradient><linearGradient id="prefix__C"><stop offset="0" stop-color="#a05a2c"/><stop offset="1" stop-color="#a05a2c" stop-opacity="0"/></linearGradient><linearGradient id="prefix__B"><stop offset="0" stop-color="#cc9408"/><stop offset="1" stop-color="#cc9408" stop-opacity="0"/></linearGradient><linearGradient id="prefix__A"><stop offset="0" stop-color="#d8b028"/><stop offset="1" stop-color="#d8b028" stop-opacity="0"/></linearGradient><linearGradient id="prefix__z"><stop offset="0"/><stop offset="1" stop-opacity="0"/></linearGradient><linearGradient id="prefix__y"><stop offset="0" stop-color="#a9a9a9"/><stop offset="1" stop-color="#a9a9a9" stop-opacity="0"/></linearGradient><linearGradient id="prefix__x"><stop offset="0" stop-color="#cc9408"/><stop offset="1" stop-color="#cc9408" stop-opacity="0"/></linearGradient><linearGradient id="prefix__w"><stop offset="0" stop-color="#cc9408"/><stop offset="1" stop-color="#cc9408" stop-opacity="0"/></linearGradient><linearGradient id="prefix__v"><stop offset="0" stop-color="#fff"/><stop offset="1" stop-color="#fff" stop-opacity="0"/></linearGradient><linearGradient id="prefix__u"><stop offset="0"/><stop offset="1" stop-opacity="0"/></linearGradient><linearGradient id="prefix__t"><stop offset="0" stop-color="#d8b028"/><stop offset="1" stop-color="#d8b028" stop-opacity="0"/></linearGradient><linearGradient id="prefix__s"><stop offset="0" stop-color="#d8b028"/><stop offset="1" stop-color="#d8b028" stop-opacity="0"/></linearGradient><linearGradient id="prefix__r"><stop offset="0" stop-color="#d8b028"/><stop offset="1" stop-color="#d8b028" stop-opacity="0"/></linearGradient><linearGradient id="prefix__q"><stop offset="0" stop-color="#a9a9a9"/><stop offset="1" stop-color="#a9a9a9" stop-opacity="0"/></linearGradient><linearGradient id="prefix__p"><stop offset="0" stop-color="gray"/><stop offset="1" stop-color="gray" stop-opacity="0"/></linearGradient><linearGradient id="prefix__o"><stop offset="0" stop-color="#a9a9a9"/><stop offset="1" stop-color="#a9a9a9" stop-opacity="0"/></linearGradient><linearGradient id="prefix__n"><stop offset="0" stop-opacity="0"/><stop offset="1" stop-opacity="0"/></linearGradient><linearGradient id="prefix__m"><stop offset="0" stop-color="#a9a9a9"/><stop offset="1" stop-color="#a9a9a9" stop-opacity="0"/></linearGradient><linearGradient id="prefix__l"><stop offset="0" stop-color="#a9a9a9"/><stop offset="1" stop-color="#a9a9a9" stop-opacity="0"/></linearGradient><linearGradient id="prefix__k"><stop offset="0" stop-color="#a9a9a9"/><stop offset="1" stop-color="#a9a9a9" stop-opacity="0"/></linearGradient><linearGradient id="prefix__j"><stop offset="0" stop-color="#ecd858"/><stop offset="1" stop-color="#ecd858" stop-opacity="0"/></linearGradient><linearGradient id="prefix__i"><stop offset="0" stop-color="#fff"/><stop offset="1" stop-color="#fff" stop-opacity="0"/></linearGradient><linearGradient id="prefix__h"><stop offset="0" stop-color="#f4ec6c"/><stop offset="1" stop-color="#f4ec6c" stop-opacity="0"/></linearGradient><linearGradient id="prefix__g"><stop offset="0" stop-color="#9b9b9b"/><stop offset="1" stop-color="#9b9b9b" stop-opacity="0"/></linearGradient><linearGradient id="prefix__f"><stop offset="0" stop-color="#b4b4b4"/><stop offset="1" stop-color="#b4b4b4" stop-opacity="0"/></linearGradient><linearGradient id="prefix__e"><stop offset="0" stop-color="#9b9b9b"/><stop offset="1" stop-color="#9b9b9b" stop-opacity="0"/></linearGradient><linearGradient id="prefix__d"><stop offset="0" stop-color="#b4b4b4"/><stop offset="1" stop-color="#b4b4b4" stop-opacity="0"/></linearGradient><linearGradient id="prefix__c"><stop offset="0" stop-color="#ababab"/><stop offset="1" stop-color="#ababab" stop-opacity="0"/></linearGradient><linearGradient id="prefix__b"><stop offset="0" stop-color="#ecd454"/><stop offset="1" stop-color="#ecd454" stop-opacity="0"/></linearGradient><linearGradient id="prefix__a"><stop offset="0" stop-color="#ecd454"/><stop offset="1" stop-color="#ecd454" stop-opacity="0"/></linearGradient><linearGradient xlink:href="#prefix__a" id="prefix__T" x1="-97.194" y1="255.666" x2="108.354" y2="134.082" gradientUnits="userSpaceOnUse"/><linearGradient xlink:href="#prefix__b" id="prefix__aM" x1="108.322" y1="146.333" x2="140.809" y2="157.258" gradientUnits="userSpaceOnUse"/><linearGradient xlink:href="#prefix__h" id="prefix__an" x1="129.591" y1="173.9" x2="129.724" y2="169.131" gradientUnits="userSpaceOnUse"/><linearGradient xlink:href="#prefix__h" id="prefix__ak" gradientUnits="userSpaceOnUse" x1="142.598" y1="172.579" x2="142.306" y2="169.109"/><linearGradient xlink:href="#prefix__j" id="prefix__aj" x1="158.048" y1="173.631" x2="176.126" y2="176.362" gradientUnits="userSpaceOnUse"/><linearGradient xlink:href="#prefix__n" id="prefix__aF" x1="153.963" y1="214.392" x2="155.713" y2="215.707" gradientUnits="userSpaceOnUse"/><linearGradient xlink:href="#prefix__o" id="prefix__aE" x1="153.193" y1="215.707" x2="155.713" y2="215.707" gradientUnits="userSpaceOnUse"/><linearGradient xlink:href="#prefix__p" id="prefix__aO" x1="153.404" y1="214.137" x2="154.903" y2="214.137" gradientUnits="userSpaceOnUse"/><linearGradient xlink:href="#prefix__q" id="prefix__aC" x1="151.976" y1="215.828" x2="156.362" y2="215.828" gradientUnits="userSpaceOnUse"/><linearGradient xlink:href="#prefix__w" id="prefix__aH" x1="147.788" y1="211.207" x2="148.502" y2="213.815" gradientUnits="userSpaceOnUse"/><linearGradient xlink:href="#prefix__w" id="prefix__aw" gradientUnits="userSpaceOnUse" x1="149.848" y1="216.715" x2="151.786" y2="219.741"/><linearGradient xlink:href="#prefix__w" id="prefix__aK" gradientUnits="userSpaceOnUse" x1="144.654" y1="206.998" x2="147.561" y2="212.293"/><linearGradient xlink:href="#prefix__x" id="prefix__ac" gradientUnits="userSpaceOnUse" x1="151.997" y1="222.267" x2="153.382" y2="225.367"/><linearGradient xlink:href="#prefix__y" id="prefix__aJ" x1="152.29" y1="208.218" x2="151.884" y2="210.45" gradientUnits="userSpaceOnUse"/><linearGradient xlink:href="#prefix__z" id="prefix__aG" x1="141.948" y1="215.763" x2="144.17" y2="217.719" gradientUnits="userSpaceOnUse"/><linearGradient xlink:href="#prefix__A" id="prefix__X" x1="138.542" y1="226.878" x2="142.711" y2="232.071" gradientUnits="userSpaceOnUse"/><linearGradient xlink:href="#prefix__B" id="prefix__Y" x1="125.702" y1="228.656" x2="145.952" y2="229.998" gradientUnits="userSpaceOnUse"/><linearGradient xlink:href="#prefix__a" id="prefix__R" x1="36.544" y1="204.731" x2="168.8" y2="204.731" gradientUnits="userSpaceOnUse"/><linearGradient xlink:href="#prefix__a" id="prefix__V" x1="38.179" y1="213.119" x2="57.901" y2="213.119" gradientUnits="userSpaceOnUse"/><linearGradient xlink:href="#prefix__F" id="prefix__U" x1="122.728" y1="155.177" x2="19.333" y2="172.329" gradientUnits="userSpaceOnUse"/><linearGradient xlink:href="#prefix__G" id="prefix__W" x1="190.723" y1="217.677" x2="42.689" y2="182.224" gradientUnits="userSpaceOnUse"/><linearGradient xlink:href="#prefix__G" id="prefix__I" gradientUnits="userSpaceOnUse" x1="28.097" y1="38.933" x2="209.612" y2="91.24"/><linearGradient xlink:href="#prefix__H" id="prefix__ah" x1="128.472" y1="171.295" x2="108.563" y2="170.788" gradientUnits="userSpaceOnUse"/><linearGradient xlink:href="#prefix__a" id="prefix__aR" x1="141.686" y1="173.034" x2="150.047" y2="173.034" gradientUnits="userSpaceOnUse"/><linearGradient xlink:href="#prefix__G" id="prefix__aq" x1="158.616" y1="180.879" x2="169.705" y2="180.002" gradientUnits="userSpaceOnUse"/><linearGradient xlink:href="#prefix__b" id="prefix__ax" x1="122.715" y1="200.409" x2="162.043" y2="200.409" gradientUnits="userSpaceOnUse"/><radialGradient xlink:href="#prefix__c" id="prefix__af" cx="118.28" cy="171.034" fx="118.28" fy="171.034" r="1.99" gradientTransform="matrix(-13.18264 3.99003 -1.38965 -4.59127 1905.567 485.39)" gradientUnits="userSpaceOnUse"/><radialGradient xlink:href="#prefix__d" id="prefix__ag" cx="110.939" cy="173.03" fx="110.939" fy="173.03" r="1.889" gradientTransform="matrix(-11.54937 .63068 -.46678 -8.54801 1472.985 1582.122)" gradientUnits="userSpaceOnUse"/><radialGradient xlink:href="#prefix__e" id="prefix__am" cx="113.624" cy="175.335" fx="113.624" fy="175.335" r="2.713" gradientTransform="matrix(2.18809 .74857 -1.01534 2.96786 43.03 -430.09)" gradientUnits="userSpaceOnUse"/><radialGradient xlink:href="#prefix__f" id="prefix__ai" cx="120.322" cy="174.856" fx="120.322" fy="174.856" r="3.245" gradientTransform="matrix(4.2285 -.3259 .3524 4.57227 -450.08 -586.365)" gradientUnits="userSpaceOnUse"/><radialGradient xlink:href="#prefix__g" id="prefix__ap" cx="120.487" cy="172.86" fx="120.487" fy="172.86" r="2.567" gradientTransform="matrix(-3.00464 -.02084 .01237 -1.78248 480.37 483.493)" gradientUnits="userSpaceOnUse"/><radialGradient xlink:href="#prefix__i" id="prefix__ao" cx="129.029" cy="172.951" fx="129.029" fy="172.951" r="5.051" gradientTransform="matrix(.99993 .01215 -.00443 .3649 .776 108.273)" gradientUnits="userSpaceOnUse"/><radialGradient xlink:href="#prefix__i" id="prefix__al" gradientUnits="userSpaceOnUse" gradientTransform="matrix(.99993 .01215 -.00443 .3649 .776 108.273)" cx="144.053" cy="173.188" fx="144.053" fy="173.188" r="5.051"/><radialGradient xlink:href="#prefix__i" id="prefix__az" gradientUnits="userSpaceOnUse" gradientTransform="matrix(4.88192 .47414 -.063 .64862 -575.557 -11.481)" cx="151.118" cy="176.02" fx="151.118" fy="176.02" r="5.051"/><radialGradient xlink:href="#prefix__i" id="prefix__ay" gradientUnits="userSpaceOnUse" gradientTransform="matrix(.9986 -.05306 .06649 1.25143 -11.666 -39.131)" cx="167.496" cy="178.592" fx="167.496" fy="178.592" r="5.051"/><radialGradient xlink:href="#prefix__k" id="prefix__aI" cx="154.393" cy="208.418" fx="154.393" fy="208.418" r="1.491" gradientTransform="matrix(1 0 0 1.4136 0 -86.2)" gradientUnits="userSpaceOnUse"/><radialGradient xlink:href="#prefix__l" id="prefix__aD" cx="156.781" cy="214.627" fx="156.781" fy="214.627" r="1.583" gradientTransform="matrix(1 0 0 .94187 0 12.476)" gradientUnits="userSpaceOnUse"/><radialGradient xlink:href="#prefix__m" id="prefix__aa" cx="158.936" cy="220.921" fx="158.936" fy="220.921" r="1.835" gradientTransform="matrix(1 0 0 .98206 0 3.963)" gradientUnits="userSpaceOnUse"/><radialGradient xlink:href="#prefix__i" id="prefix__aB" gradientUnits="userSpaceOnUse" gradientTransform="matrix(.9977 -.0677 .1935 2.85137 -51.805 -545.149)" cx="137.132" cy="267.196" fx="137.132" fy="267.196" r="5.051"/><radialGradient xlink:href="#prefix__i" id="prefix__ar" gradientUnits="userSpaceOnUse" gradientTransform="matrix(.9977 -.0677 .1935 2.85137 -51.805 -545.149)" cx="119.309" cy="277.61" fx="119.309" fy="277.61" r="5.051"/><radialGradient xlink:href="#prefix__r" id="prefix__ad" cx="125.347" cy="228.527" fx="125.347" fy="228.527" r="1.818" gradientTransform="matrix(1 0 0 1.14792 0 -33.803)" gradientUnits="userSpaceOnUse"/><radialGradient xlink:href="#prefix__s" id="prefix__ab" cx="128.788" cy="232.321" fx="128.788" fy="232.321" r="1.781" gradientTransform="matrix(1 0 0 1.06835 0 -15.88)" gradientUnits="userSpaceOnUse"/><radialGradient xlink:href="#prefix__t" id="prefix__aL" cx="140.098" cy="214.906" fx="140.098" fy="214.906" r="2.052" gradientTransform="matrix(1 0 0 1.03975 0 -8.542)" gradientUnits="userSpaceOnUse"/><radialGradient xlink:href="#prefix__s" id="prefix__ae" cx="144.138" cy="205.484" fx="144.138" fy="205.484" r="6.245" gradientTransform="matrix(-4.10673 3.86368 -4.97116 -5.28388 1755.534 710.131)" gradientUnits="userSpaceOnUse"/><radialGradient xlink:href="#prefix__i" id="prefix__aA" gradientUnits="userSpaceOnUse" gradientTransform="matrix(2.88952 -2.79674 2.63145 2.71875 -965.318 -150.042)" cx="130.198" cy="273.287" fx="130.198" fy="273.287" r="5.051"/><radialGradient xlink:href="#prefix__i" id="prefix__av" gradientUnits="userSpaceOnUse" gradientTransform="matrix(2.88952 -2.79674 2.63145 2.71875 -965.318 -150.042)" cx="124.179" cy="271.474" fx="124.179" fy="271.474" r="5.051"/><radialGradient xlink:href="#prefix__u" id="prefix__Z" cx="135.871" cy="228.656" fx="135.871" fy="228.656" r="10.169" gradientTransform="matrix(.99126 .13195 -.31762 2.38607 73.814 -334.861)" gradientUnits="userSpaceOnUse"/><radialGradient xlink:href="#prefix__v" id="prefix__at" cx="153.114" cy="230.649" fx="153.114" fy="230.649" r="3.678" gradientTransform="matrix(.86186 .50715 -.88044 1.49623 224.224 -192.107)" gradientUnits="userSpaceOnUse"/><radialGradient xlink:href="#prefix__v" id="prefix__au" gradientUnits="userSpaceOnUse" gradientTransform="matrix(.52371 .53231 -4.13962 4.07275 1051.114 -810.76)" cx="144.692" cy="238.699" fx="144.692" fy="238.699" r="3.678"/><radialGradient xlink:href="#prefix__v" id="prefix__as" gradientUnits="userSpaceOnUse" gradientTransform="matrix(.58716 .46138 -6.05098 7.70069 1494.032 -1659.341)" cx="159.256" cy="237.016" fx="159.256" fy="237.016" r="3.678"/><radialGradient xlink:href="#prefix__a" id="prefix__J" cx="75.567" cy="49.157" fx="75.567" fy="49.157" r="62.062" gradientTransform="matrix(2.90374 1.31064 -1.15 2.54784 -87.33 -174.606)" gradientUnits="userSpaceOnUse"/><radialGradient xlink:href="#prefix__a" id="prefix__K" cx="146.179" cy="100.577" fx="146.179" fy="100.577" r="52.541" gradientTransform="matrix(-.09734 -2.65533 3.4003 -.12465 -181.584 499.702)" gradientUnits="userSpaceOnUse"/><radialGradient xlink:href="#prefix__b" id="prefix__M" cx="117.393" cy="61.504" fx="117.393" fy="61.504" r="31.223" gradientTransform="matrix(-1.92866 -1.15276 1.98061 -3.31371 221.99 400.637)" gradientUnits="userSpaceOnUse"/><radialGradient xlink:href="#prefix__b" id="prefix__L" cx="95.947" cy="99.359" fx="95.947" fy="99.359" r="42.819" gradientTransform="matrix(1.95001 .45193 -.7237 3.12265 -19.245 -254.97)" gradientUnits="userSpaceOnUse"/><radialGradient xlink:href="#prefix__C" id="prefix__O" cx="107.783" cy="62.309" fx="107.783" fy="62.309" r="25.901" gradientTransform="matrix(-2.1117 .29043 -.1253 -.91112 343.196 88.996)" gradientUnits="userSpaceOnUse"/><radialGradient xlink:href="#prefix__D" id="prefix__N" cx="104.444" cy="59.565" fx="104.444" fy="59.565" r="25.513" gradientTransform="matrix(-1.70044 .21717 -.36714 -2.8747 303.914 207.321)" gradientUnits="userSpaceOnUse"/><radialGradient xlink:href="#prefix__E" id="prefix__Q" cx="107.548" cy="79.309" fx="107.548" fy="79.309" r="23.581" gradientTransform="matrix(2.78735 -.15605 .12376 1.71476 -202.97 -47.518)" gradientUnits="userSpaceOnUse"/><radialGradient xlink:href="#prefix__F" id="prefix__aN" cx="94.965" cy="153.044" fx="94.965" fy="153.044" r="6.726" gradientTransform="matrix(1.111 .17867 -.19908 1.23793 19.927 -53.382)" gradientUnits="userSpaceOnUse"/><filter id="prefix__aP" x="-1.669" y="-.701" width="2.722" height="1.873" color-interpolation-filters="sRGB"><feMorphology radius="4.3" in="SourceAlpha" result="result91"/><feComposite operator="out" in="SourceGraphic" in2="result91"/><feGaussianBlur result="result0" stdDeviation="1.2"/><feDiffuseLighting><feDistantLight elevation="66" azimuth="225"/></feDiffuseLighting><feBlend mode="multiply" in2="SourceGraphic"/><feComposite operator="in" in2="SourceAlpha"/></filter><filter id="prefix__aQ" x="-.103" y="-.02" width="1.155" height="1.192" color-interpolation-filters="sRGB"><feMorphology radius="4.3" in="SourceAlpha" result="result91"/><feComposite operator="out" in="SourceGraphic" in2="result91"/><feGaussianBlur result="result0" stdDeviation="1.2"/><feDiffuseLighting><feDistantLight elevation="66" azimuth="225"/></feDiffuseLighting><feBlend mode="multiply" in2="SourceGraphic"/><feComposite operator="in" in2="SourceAlpha"/></filter><filter id="prefix__aS" x="-.103" y="-.02" width="1.155" height="1.192" color-interpolation-filters="sRGB"><feMorphology radius="4.3" in="SourceAlpha" result="result91"/><feComposite operator="out" in="SourceGraphic" in2="result91"/><feGaussianBlur result="result0" stdDeviation="1.2"/><feDiffuseLighting><feDistantLight elevation="66" azimuth="225"/></feDiffuseLighting><feBlend mode="multiply" in2="SourceGraphic"/><feComposite operator="in" in2="SourceAlpha"/></filter><meshgradient id="prefix__S" gradientUnits="userSpaceOnUse" x="36.544" y="133.452"><meshrow><meshpatch><stop path="c 44.0854,0 88.1708,0 132.256,0" stop-color="#fff"/><stop path="c 0,47.5188 0,95.0377 0,142.557" stop-color="#d8b028"/><stop path="c -44.0854,0 -88.1708,0 -132.256,0" stop-color="#fff"/><stop path="c 0,-47.5188 0,-95.0377 0,-142.557" stop-color="#d8b028"/></meshpatch></meshrow></meshgradient></defs><path style="font-variation-settings:normal" d="M108.326 4.206a67.582 66.25 0 00-67.554 66.25 67.582 66.25 0 0067.582 66.25 67.582 66.25 0 0067.583-66.25 67.582 66.25 0 00-67.583-66.25 67.582 66.25 0 00-.028 0zm-.28 5.711a62.062 60.539 0 01.118 0 62.062 60.539 0 0162.062 60.54 62.062 60.539 0 01-62.062 60.538 62.062 60.539 0 01-62.062-60.539 62.062 60.539 0 0161.944-60.539z" fill="url(#prefix__I)" stroke="#000" stroke-width=".065"/><path style="mix-blend-mode:hard-light" d="M108.046 9.917a62.062 60.539 0 00-61.944 60.54 62.062 60.539 0 0062.062 60.538 62.062 60.539 0 0062.062-60.539 62.062 60.539 0 00-62.062-60.539 62.062 60.539 0 00-.118 0zm.662 12.187a52.54 49.685 0 01.217 0 52.54 49.685 0 0152.541 49.685 52.54 49.685 0 01-52.54 49.685 52.54 49.685 0 01-52.541-49.685 52.54 49.685 0 0152.323-49.685z" fill="url(#prefix__J)" fill-rule="evenodd"/><path d="M108.708 22.104A52.54 49.685 0 0056.385 71.79a52.54 49.685 0 0052.54 49.685 52.54 49.685 0 0052.541-49.685 52.54 49.685 0 00-52.54-49.685 52.54 49.685 0 00-.218 0zm2.296 9.15a42.819 41.676 0 01.016 0 42.819 41.676 0 0142.818 41.677 42.819 41.676 0 01-42.818 41.676A42.819 41.676 0 0168.2 72.931a42.819 41.676 0 0142.803-41.676z" fill="url(#prefix__K)"/><path d="M111.004 31.255A42.819 41.676 0 0068.2 72.93a42.819 41.676 0 0042.819 41.676 42.819 41.676 0 0042.818-41.676 42.819 41.676 0 00-42.818-41.676 42.819 41.676 0 00-.016 0zm-2.924 14.07a31.223 31.223 0 0131.223 31.223 31.223 31.223 0 01-31.223 31.224 31.223 31.223 0 01-31.223-31.224 31.223 31.223 0 0131.223-31.223z" fill="url(#prefix__L)"/><path d="M108.08 45.325a31.223 31.223 0 00-31.223 31.223 31.223 31.223 0 0031.223 31.224 31.223 31.223 0 0031.223-31.224 31.223 31.223 0 00-31.223-31.223zm.168 5.333a26.081 26.652 0 01.106 0 26.081 26.652 0 0126.081 26.652 26.081 26.652 0 01-26.08 26.652A26.081 26.652 0 0182.272 77.31a26.081 26.652 0 0125.975-26.652z" fill="url(#prefix__M)"/><path d="M108.248 50.658a26.081 26.652 0 00-24.84 18.876 25.868 23.79 0 0124.375-15.824 25.868 23.79 0 0125.868 23.79 25.868 23.79 0 01-25.868 23.79 25.868 23.79 0 01-23.759-14.38 26.081 26.652 0 0024.33 17.052 26.081 26.652 0 0026.081-26.652 26.081 26.652 0 00-26.08-26.652 26.081 26.652 0 00-.107 0z" fill="url(#prefix__N)"/><path d="M107.774 53.71a25.868 23.79 0 00-25.86 23.79 25.868 23.79 0 0014.033 21.154 21.304 14.245 0 01-8.93-11.596 21.304 14.245 0 0121.305-14.244 21.304 14.245 0 0121.304 14.244 21.304 14.245 0 01-1.303 4.904 25.868 23.79 0 005.328-14.462 25.868 23.79 0 00-25.868-23.79 25.868 23.79 0 00-.009 0zM97.03 99.137a25.868 23.79 0 00.177.074 21.304 14.245 0 01-.177-.074zm.183.076a25.868 23.79 0 0010.088 2.074 21.304 14.245 0 01-10.088-2.074z" fill="url(#prefix__O)" stroke="url(#prefix__P)" stroke-width=".065"/><path d="M131.186 83.132a23.58 21.064 0 01-23.553 21.064A23.58 21.064 0 0184.024 83.18a23.58 21.064 0 0123.498-21.113 23.58 21.064 0 0123.664 20.965l-23.58.099z" fill="url(#prefix__Q)"/><path style="font-variation-settings:normal" d="M86.576 133.49c8.272 2.62 13.401 2.268 21.778 3.216l-6.7 12.67c-14.029 7.188-27.67 14.839-37.695 28.27-12.456 26.232-10.337 44.734 2.962 67.042 8.37 9.936 18.294 13.986 29.886 18.847 12.64 3.163 23.224.604 35.54-2.153 16.602-10.356 22.91-22.938 30.963-39.849l4.577-13.462v0c3.083 23.476-1.945 31.669-14.808 47.656-11.534 14.335-22.177 17.839-38.771 20.194-40.63 1.168-61.712-16.073-73.773-46.58-8.234-20.825-1.666-30.941 2.154-47.117 5.257-15.007 15.989-22.836 27.732-31.771 3.827-4.898 9.785-6.162 12.116-11.578z" fill="url(#prefix__R)" stroke="url(#prefix__S)" stroke-width=".065"/><path d="M95.598 135.568l2.666.38 1.713-.19c-4.094 12.796-17.353 19.587-27.796 27.606-10.148 8.21-14.945 15.621-20.752 27.034l-2.475 11.995c.172-10.668 4.132-18.736 8.758-27.987 5.578-7.773 11.806-12.82 19.038-18.848 7.98-6.086 18.633-14.857 18.848-19.99z" fill="url(#prefix__T)"/><path style="font-variation-settings:normal" d="M85.698 132.521c2.408 1.087 4.913 1.872 7.425 2.666-2.629 4.902-5.063 8.745-10.28 11.232-14.425 9.62-22.59 19.311-31.223 33.699-4.702 13.34-6.513 22.473-5.902 35.601-4.136-16.09-1.185-30.849 4.95-44.169 6.714-12.649 15.547-18.151 26.082-27.415 4.845-3.496 7.618-6.07 8.948-11.614z" fill="url(#prefix__U)"/><path style="font-variation-settings:normal" d="M47.535 175.358c-5.429 6.943-6.394 13.17-8.75 21.54-1.683 11.718.382 21.935 3.23 33.117 3.732 9.048 8.474 15.042 15.886 20.866-10.766-19.09-14-33.052-14-53.714 1.225-8.084 1.709-14.322 3.634-21.81z" fill="url(#prefix__V)"/><path style="font-variation-settings:normal" d="M109.295 153.556c-18.006.065-35.955 8.47-47.966 21.802-9.316 10.061-13.265 21.714-13.137 35.792.132 11.926 3.789 21.094 8.949 31.414 12.102 15.52 22.027 23.547 40.361 28.367 23.702.708 38.25-1.2 54.83-18.658 12.718-13.033 12.362-25.235 15.803-39.98 1.127-13.958-5.099-20.552-9.52-31.414-10.409-13.203-18.424-18.124-32.936-24.94-5.354-1.641-10.872-2.403-16.384-2.383zm-3.22 5.257c25.977-.193 48.131 16.166 55.396 48.34 2.621 29.684-20.032 60.516-54.45 57.686C86.107 262.156 69.472 252 59.615 230.95c-8.727-21.225-2.984-56.512 29.891-69.871 5.622-1.473 11.178-2.226 16.57-2.266z" fill="url(#prefix__W)"/><path style="font-variation-settings:normal" d="M164.898 228.475c-2.354 5.252-2.876 10.817-6.473 15.993-11.526 17.245-30.677 26.771-49.31 26.082-26.485 2.804-52.644-18.557-58.257-42.646-7.606-36.889 11.613-64.372 43.408-73.108l7.425-1.142c-12.726 3.38-19.288 7.783-29.7 15.04-11.41 10.397-16.598 19.418-19.61 33.699-1.641 14.563 1.602 28.234 8.948 39.6 7.331 11.341 15.802 20.18 32.366 24.369 29.19 4.736 58.655-8.257 67.015-34.27z" fill="url(#prefix__U)"/><path d="M135.242 214.796l-14.437 13.415-.44 1.972 15.558-13.957z" fill="none" stroke="#000" stroke-width=".265"/><path d="M115.17 236.4c-.29.856.454 1.576 1.107 1.668l-1.243 1.243.375-.494-1.056-1.192-.732.17c.515-.466 1.033-.93 1.55-1.395z" fill="#cc9408" stroke="#000" stroke-width=".065"/><path style="font-variation-settings:normal" d="M147.772 216.975l-17.842 17.773c1.283.512 1.366.616 1.294 1.907l18.182-16.82c.177-2.195.222-1.895-1.634-2.86z" fill="url(#prefix__X)"/><path style="font-variation-settings:normal" d="M131.224 236.655l5.107-4.733c-1.476 2.681-4.068 4.84-5.992 6.606-4.218.045-2.365-2.283-.409-3.78 1.078.36 1.285.734 1.294 1.907z" fill="#fff"/><path style="font-variation-settings:normal" d="M129.93 234.748c-1.956 1.497-3.809 3.825.409 3.78-2.424 1.993-5.09.427-4.529-1.396 4.503-5.086 17.015-18.534 19.783-19.272l.408.817c-5.275 5.44-10.691 10.737-16.07 16.071v0" fill="url(#prefix__Y)" stroke="url(#prefix__Z)" stroke-width=".065"/><path d="M133.009 241.517c5.476-5.57 9.697-10.993 15.171-14.838.81-.32 1.431-.327 2.247-.17l1.6-1.703c-1.055-.575-1.752-1.418-2.042-2.417-7.654 7.327-13.354 13.372-20.123 20.429 1.248-.307 2.082-.605 3.147-1.301z" fill="none" stroke="#000" stroke-width=".165"/><path style="font-variation-settings:normal" d="M154.786 219.937c-.709 1.177-.525 1.81-.205 3.065.528 1.165 1.173 1.304 2.316 1.702 1.777-.508 1.585-1.869 1.634-3.473-1.343-1.649-1.833-2.094-3.745-1.294z" fill="#a9a9a9"/><path style="font-variation-settings:normal" d="M136.331 231.922c-.714 1.174-1.527 2.267-2.383 3.337 1.02.09 2.042.068 3.064.068 3.401-3.151 6.805-6.698 10.147-10.214l1.021-1.124c-.45-.53-.745-.55-1.396-.579a615.547 615.547 0 00-6.503 6.776c-1.01 1.438-2.5 1.535-3.95 1.736z" fill="#d8b028"/><path d="M154.786 219.937l-.886.409c-.826 2.478.342 4.362 2.452 4.8l.545-.442c-2.47-.622-3.06-2.952-2.111-4.767z" fill="gray"/><path d="M157.1 220.55c.035 2.322 1.928 2.364 3.304 2.009.858-1.837.2-3.488-1.873-3.439-.83.285-1.038.699-1.43 1.43z" fill="url(#prefix__aa)"/><path style="font-variation-settings:normal" d="M127.07 232.433c.67.475 1.221 1.019 1.328 1.702l2.111-2.28c-.539-.39-1.193-.608-1.43-1.363z" fill="url(#prefix__ab)" stroke="#000" stroke-width=".08"/><path style="font-variation-settings:normal" d="M85.633 253.405c-.011.565.146.663.572.976l15.65-10.231 1.919-1.885c-6.074 3.553-12.19 7.355-18.14 11.14z" fill="#f4ec6c" stroke="#000" stroke-width=".065"/><path style="font-variation-settings:normal" d="M83.277 257.242c.138-1.323 1.745-2.105 2.928-2.86-.4-.326-.791-.652-.572-.977v0c-4.442 2.896-3.058 3.022-7.64.404 1.212 1.447 3.627 2.486 5.284 3.433z" fill="#d8b028" stroke="#000" stroke-width=".065"/><path style="font-variation-settings:normal" d="M150.427 226.509c.928.011 1.648.194 2.43.634.136-1.493 1.286-1.632 2.522-2.237-1.966-1.835-1.776-1.712-1.479-4.56-1.312.688-2.773 1.524-3.915 2.043-1.09.008-2.173.136-3.2 1.021l-.949-.266-2.927 2.785c.463.1.555.25.762.642l2.784-2.784.33-.377c.67-.06.91.167 1.395.579l1.805-1.6c.46 1.192 1.011 1.814 2.043 2.417z" fill="url(#prefix__ac)"/><path style="font-variation-settings:normal" d="M157.27 220.17c-.439 1.69.755 2.647 2.035 2.558l1.099-.17c-.262.888-1.156.755-1.856.675-.7-.08-2.859-1.544-1.279-3.063z" fill="gray"/><path style="font-variation-settings:normal" d="M124.894 230.546l2.213-2.047c-.688-.684-1.25-1.355-1.309-1.975l-2.213 2.023c.484.523.95 1.1 1.309 1.999z" fill="url(#prefix__ad)" stroke="#000" stroke-width=".08"/><path style="font-variation-settings:normal" d="M143.52 206.994l2.693-2.154c-4.312-6.474-8.865-19.842-4.106-23.559 2.326-1.524 4.708-1.311 7.337-1.279l-1.885-2.49c-6.34 1.504-7.729 3.55-9.659 5.99-3.114 7.393 3.448 15.466 5.62 23.492z" fill="url(#prefix__ae)"/><path d="M111.346 168.021l-2.02.135c-2.399 2.916-2.218 4.518-1.278 7.808l2.086 1.952c-2.325-4.954-.807-9.76 1.212-9.895z" fill="url(#prefix__af)" stroke="#000" stroke-width=".065"/><path d="M112.76 169.704l-1.414-1.683v0c-2.978 1.388-2.613 6.052-1.212 9.895v0c1.047.105 1.58.389 2.154-.471-1.67-1.455-2.92-7.702.472-7.741z" fill="url(#prefix__ag)" stroke="#000" stroke-width=".065"/><path style="font-variation-settings:normal" d="M112.288 177.445c-1.67-1.455-2.92-7.702.472-7.741 2.038.038 3.229.778 4.779 1.683-.619 1.367.01 1.995.269 3.163-1.943 1.408-3.359 2.223-5.52 2.895z" fill="url(#prefix__ah)"/><path style="font-variation-settings:normal" d="M117.539 171.387c-.591 1.24-.184 1.941.269 3.163l5.789-.413c.287-.751-.41-1.59 0-2.683-2.019-.088-4.039-.067-6.058-.067z" fill="url(#prefix__ai)"/><path d="M148.9 174.636l15.218.655c3.314.268 5.454 1.25 5.587 4.711.637-1.055 1.213-2.163 1.144-3.836-.03-4.098-9.229-3.694-14-3.904l-7.792-.775c.798 1.28.31 2.697-.156 3.15z" fill="url(#prefix__aj)"/><path style="font-variation-settings:normal" d="M135.14 171.387c3.928.211 7.851.138 11.78.067 1.186.937 1.084 2.165.404 3.197l-11.342-.471c-.634.145-1.144-.337-1.144-.337.4-.85.382-1.558.303-2.456z" fill="url(#prefix__ak)"/><path style="font-variation-settings:normal" d="M137.16 173.002l.135.808 9.356.37.572-.337z" fill="url(#prefix__al)"/><path style="font-variation-settings:normal" d="M111.02 173.406c-.221 1.243-.016 2.47 1.268 4.039 1.36-.872 3.264-1.21 4.015-2.706l-.381-1.523z" fill="url(#prefix__am)"/><path style="font-variation-settings:normal" d="M123.597 174.137l11.24-.294.361-1.436-.057-1.02c-3.896-.134-7.77-.263-11.544.067-.137.904-.087 1.782 0 2.683" fill="url(#prefix__an)"/><path style="font-variation-settings:normal" d="M124.251 173.406l9.825-.145.003-.764-10.1.053z" fill="url(#prefix__ao)"/><path style="font-variation-settings:normal" d="M117.969 172.36l.41 1c1.93-.138 4.842-.083 4.635-.068l-.048-.885z" fill="url(#prefix__ap)"/><path style="font-variation-settings:normal" d="M168.42 176.976l-14.278 20.657c-10.842 10.094-23.615 20.433-33.413 28.843-5.177 5.272-2.822 9.635-.285 14.565 2.885 3.146 3.914 4.39 8.091 4.854 5.89 1.077 14.807-12.131 21.133-16.753 3.363 1.118 3.678 2.072 6.343 4.833l2.13-2.233c-8.03-8.423-10.01-5.028-13.233-2.41-.83.38-12.051 12.185-11.899 12.185-8.734 5.347-12.467-5.949-11.709-10.948 5.78-5.293 11.553-10.595 17.325-15.897 8.144-5.841 14.257-11.435 20.086-19.514 3.627-5.08 7.617-9.903 10.994-15.156-.216-1.159-.435-2.418-1.284-3.026z" fill="url(#prefix__aq)"/><path d="M149.057 171.487c.503 1.103.48 1.972-.156 3.15l-1.577.014c.474-1.58.672-2.407-.404-3.197l2.137.034" fill="none"/><path style="font-variation-settings:normal" d="M120.366 230.183c-2.057 2.591-1.264 3.025-.74 6.293.792 2.454 1.739 4.166 3.5 5.991 2.49 2.472 4.29 2.668 7.37 2.423-8.779-1.966-11.016-8.503-10.13-14.707z" fill="url(#prefix__ar)"/><path d="M130.573 245.842c1.49 6.052 3.77 7.88 9.784 6.924 2.9-2.522 29.307-24.097 28.473-37.896l-.539-.068c-2.389 6.239-4.917 11.007-9.423 15.953-3.385 3.786-7.015 7.344-10.568 10.972a146.986 146.986 0 01-8.28 8.077c-1.665 1.055-2.729.206-4.442-.471-2.094-1.246-2.305-2.683-2.423-4.77z" fill="#e0c038" stroke="#000" stroke-width=".065"/><path style="font-variation-settings:normal" d="M132.213 247.313c1.08 3.275.896 3.019 3.836 4.376 1.378.36 2.234.504 3.433-.135-3.217-.68-5.08-1.48-7.27-4.24z" fill="#fff"/><path style="font-variation-settings:normal" d="M141.232 250.04c9.523-7.073 21.865-19.299 25.646-29.382-6.328 11.569-17.04 20.956-25.646 29.382z" fill="url(#prefix__as)"/><path d="M118.54 229.142l-.81 2.665" fill="none" stroke="#000" stroke-width=".265"/><path style="font-variation-settings:normal" d="M118.54 229.142c-7.066 6.168-12.604 11.3-19.467 17.8-2.58 4.365 2.274 8.574 5.807 6.474l6.473-5.95 8.297-8.107c-.595-1.005-.979-2.124-1.428-3.125l-15.817 14.897c-1.121-.406-1.157-.82-1.428-1.904l16.658-15.135" fill="#e8d04c" stroke="#000" stroke-width=".065"/><path style="font-variation-settings:normal" d="M103.833 251.036c4.687-4.258 9.33-8.563 13.945-12.899.317.61.32 1.066.238 1.714l-9.662 8.995c-1.486 1.55-2.495 2.274-4.521 2.19z" fill="#fff"/><path d="M149.668 229.142c2.67.354 4.065 1.85 5.997 3.57l1-.667c-1.32-1.396-2.959-2.321-4.57-3.332-1.105-.29-1.534-.152-2.427.429z" fill="url(#prefix__at)"/><path style="font-variation-settings:normal" d="M132.105 243.278c2.852-.51 4.61-2.97 6.663-4.855 2.561-2.05 8.332-9.638 10.9-10.614-3.17.415-3.54 1.372-5.712 3.617-3.862 3.925-8.093 8.384-11.851 11.852z" fill="url(#prefix__au)"/><path style="font-variation-settings:normal" d="M116.957 231.942c-5.17 5.11-16.074 12.193-16.216 16.578 4.579-4.75 9.57-8.603 14.375-13.12.784-1.263.926-2.29 1.84-3.458z" fill="url(#prefix__av)"/><path style="font-variation-settings:normal" d="M99.331 247.751c-.148 3.45.197 4.234 3.164 5.284.973-.075 1.579-.237 2.255-.875-3.564-.146-3.955-.795-4.712-3.837z" fill="#fff"/><path style="font-variation-settings:normal" d="M147.772 216.975c1.578.589 1.921.833 1.634 2.86l-1.023.93.951.38 3.76-2.141c-1.79-1.453-2.156-2.639-1.856-4.665-1.333.664-2.375 1.65-3.466 2.636z" fill="url(#prefix__aw)"/><path style="font-variation-settings:normal" d="M122.728 224.715l2.57-2.094c.727-3.198 2.49-4.842 4.808-7.044 5.447-4.547 9.38-8.365 13.945-13.184.87-2.317.412-3.922-.285-6.188l-3.046-8.139c-.417-5.43 1.093-6.574 5.428-8.656 7.931-.039 11.476 2.609 13.99 9.227l1.905-2.57-4.332-6.568c-2.61-2.343-4.105-2.63-7.377-3.38-2.795-.152-5.07.787-7.615 1.762-2.401 1.814-3.263 2.844-4.427 5.425-.767 1.81-1.183 3.818-.863 5.67-.698 3.354 1.239 5.697 2.553 8.57 1.098 2.96.77 4.097-.69 5.846l-8.663 8.044c-4.85 5.147-8.147 6.627-7.9 13.28z" fill="url(#prefix__ax)"/><path style="font-variation-settings:normal" d="M168.04 174.882c1.143.398 1.802 1.116 2.594 1.975.094-1.21-.318-1.635-1.071-2.499-.938-.585-1.926-.935-2.975-1.237.894.545 1.361.767 1.452 1.761z" fill="url(#prefix__ay)"/><path style="font-variation-settings:normal" d="M149.834 174.406c5.855.547 11.836.023 17.635 1.07-3.645-1.741-12.152-1.602-17.444-1.95.018.335-.115.575-.19.88z" fill="url(#prefix__az)"/><path style="font-variation-settings:normal" d="M121.348 233.71c.096 1.147.496 2.203.857 3.285l24.797-23.417-1-2.428c-8.605 7.834-16.396 15.425-24.654 22.56z" fill="#e8d04c"/><path style="font-variation-settings:normal" d="M121.538 234.9l.334 1.143 23.702-22.56-.618-.239z" fill="url(#prefix__aA)"/><path style="font-variation-settings:normal" d="M139.101 204.392c-3.342 3.065-6.55 6.265-9.757 9.471-.813.669-.938 1.405-1.19 2.38 5.035-5.621 10.394-9.069 14.803-14.279.518-1.238.138-2.346-.096-3.617-.277 2.728-1.904 4.094-3.76 6.045z" fill="url(#prefix__aB)"/><path style="font-variation-settings:normal" d="M153.095 219.004c-1.79-1.453-2.157-2.639-1.857-4.665.394-.178.809-.304 1.214-.452-1.437 2.498.973 6.294 3.689 3.594-.54 1.322-1.795 1.327-3.046 1.523z" fill="gray"/><path style="font-variation-settings:normal" d="M156.14 217.48l.167-.475c-3.645 1.492-4.101-2.92-1.404-3.475-1.015-.48-2.02-.089-2.45.357-1.564 3.12 1.321 5.937 3.688 3.594z" fill="url(#prefix__aC)"/><path style="font-variation-settings:normal" d="M155.76 213.197c-1.488 1.856.478 3.108 2.023 2.856.692-.506.569-.797.476-1.595-.448-1.158-1.49-1.38-2.499-1.261z" fill="url(#prefix__aD)"/><path style="font-variation-settings:normal" d="M157.045 216.957c-1.942-.195-2.87-1.712-2.142-3.427l.857-.333c-1.488 1.856.478 3.108 2.023 2.856.692-.506.569-.797.476-1.595.574 1.197-.378 2.037-1.214 2.499z" fill="gray"/><path style="font-variation-settings:normal" d="M153.404 214.744c.438-.245.803-.6 1.309-.643-.252 1.081.324 1.805.952 2.428l-.976.785c-1.426-.285-1.703-1.603-1.285-2.57z" fill="url(#prefix__aE)" stroke="url(#prefix__aF)" stroke-width=".065"/><path style="font-variation-settings:normal" d="M149.906 220.836l1.88-1.095c.39.125.577.679.714 1.31l-2.515 1.338v0c-.508-.436-.249-1.056-.08-1.553z" fill="#d8b028" stroke="#000" stroke-width=".08"/><path style="font-variation-settings:normal" d="M140.696 219.48c.17.517.464.928.785 1.356 1.064-.84 2.126-1.681 3.19-2.523l.922-.453.408.817c1.382-1.364 2.448-2.38 3.928-3.529-2.155.866-3.93 1.488-5.759 2.57l-.714-.737z" fill="#d8b028" stroke="url(#prefix__aG)" stroke-width=".08"/><path style="font-variation-settings:normal" d="M146.645 216.41a24.331 24.331 0 002.523-1.071l-.666-1.523c-.955.26-1.648.782-2.404 1.38z" fill="#d8b028" stroke="#000" stroke-width=".08"/><path style="font-variation-settings:normal" d="M145.693 214.863l.405.333c.725-.682 1.49-1.062 2.404-1.38.67-.535 1.438-.758 2.237-1.024-1.507-1.232-2.417-2.514-2.237-4.212-2.974 2.105-4.798 3.377-5.879 5.569l3.38-2.999 1 2.428z" fill="url(#prefix__aH)"/><path style="font-variation-settings:normal" d="M148.502 208.58c-.113 3.408 3.181 5.733 5.211 2.523-2.729 1.935-4.641-1.366-3.236-3.808-.82.25-1.363.725-1.975 1.285z" fill="gray"/><path style="font-variation-settings:normal" d="M153.57 209.865c1.101 1.041 1.184.679 2.19-.285.264-1.415.022-3.237-1.594-3.237-1.889 1.245-1.194 1.988-.595 3.522z" fill="url(#prefix__aI)"/><path style="font-variation-settings:normal" d="M153.713 211.103c-2.729 1.935-4.641-1.366-3.236-3.808h1.142c-.7 2.36-.27 3.648 2.094 3.808z" fill="#a9a9a9"/><path style="font-variation-settings:normal" d="M154.166 206.343c-1.889 1.245-1.194 1.988-.595 3.522 1.1 1.041 1.111.631 2.189-.285l-.426.813c-2.165 1.3-2.594-.654-3.03-1.918 0 0-.322-2.132 1.862-2.132z" fill="gray"/><path style="font-variation-settings:normal" d="M151.62 207.295c-.23.625-.245 1.165-.284 1.82.406-.421.396-.47.969-.64-.013-.496-.121-.921.17-1.323l-.856.143M151.884 210.45l.996-.537c.226.323.37.709.87.821l-.037.369c-.9-.051-1.298-.068-1.83-.653z" fill="gray"/><path style="font-variation-settings:normal" d="M151.336 209.115c-.016.616.179.885.548 1.335l.996-.537a34.348 34.348 0 01-.575-1.438c-.451.101-.67.316-.969.64z" fill="url(#prefix__aJ)"/><path style="font-variation-settings:normal" d="M144.86 209.865l.786.738c.713-.56 1.29-1.121 2.046-1.618l-.5-1.119c-.844.589-1.484 1.564-2.332 2z" fill="url(#prefix__aK)"/><path style="font-variation-settings:normal" d="M137.221 212.53c2.105-1.84 4.203-3.687 6.3-5.536l-.255-.651c-1.803 1.638-3.714 3.145-5.616 4.664-.554.32-.698.986-.429 1.524z" fill="#d8b028" stroke="#000" stroke-width=".08"/><path style="font-variation-settings:normal" d="M141.172 212.84c.168.687.546 1.228.928 1.809-.725.848-1.556 1.584-2.38 2.332-.49-.64-1.057-1.209-1.618-1.785.897-.93 2.025-1.604 3.07-2.356z" fill="url(#prefix__aL)"/><path d="M141.41 213.411c.083.54.346.842.69 1.238l.523-.5c.773-1.543 1.776-2.42 3.023-3.546-1.41 1.027-2.771 1.863-4.236 2.808z" fill="none"/><path style="font-variation-settings:normal" d="M108.354 136.706l14.374 18.471 2.951.762-15.04-19.134-2.285-.1z" fill="url(#prefix__aM)" stroke="#000" stroke-width=".065"/><path style="font-variation-settings:normal" d="M88.239 156.713c4.865-1.499 8.464-3.017 13.452-3.059l-.038-4.278c-4.578 2.168-13.129 6.792-13.414 7.337z" fill="url(#prefix__aN)"/><path style="font-variation-settings:normal" d="M154.903 213.53c-.735.105-1.476.775-1.499 1.214.42-.264.873-.607 1.309-.643z" fill="url(#prefix__aO)"/><path style="font-variation-settings:normal" d="M154.69 217.314a4.476 4.476 0 001.617-.31v0l.023-.182-.665-.293z" fill="gray" stroke="#000" stroke-width=".065"/><path style="font-variation-settings:normal" d="M569.183 509.937c-1.087.368-2.15.667-3.188.893a56.013 56.013 0 003.188-.893zM568.087 481.601c2.417 1.217 2.6 2.287 2.387 6.115-.024-3.31-.468-4.938-2.387-6.115zM519.312 476.962c.331 3.299 1.161 6.576 2.32 9.864-.1-.231-.197-.474-.299-.702l-7.361 6.932c-2.464-.351-5.273-3.072-4.174-6.305-1.953 1.758-3.908 3.514-5.855 5.278l2.767-.645 3.988 4.504-.67.883-48.478 45.658c-4.236-1.533-4.372-3.096-5.397-7.195l62.963-57.205zM640.183 459.32c12.604 4.19 13.905 7.792 23.744 18.025-9.49 9.988-19.275 19.7-28.914 29.541a555.552 555.552 0 01-31.293 30.527c-6.297 3.987-10.315.779-16.79-1.78-7.914-4.71-8.715-10.14-9.16-18.028l-.232.115c20.266-12.606 44.329-45.015 62.645-58.4zM549.966 449.425l-8.363 7.647c1.83 1.976 3.59 4.156 4.945 7.554l8.365-7.734c-2.599-2.583-4.726-5.121-4.947-7.467z" transform="matrix(.26458 0 0 .26458 -19.714 107.613)" fill="none" stroke="#cecac3" stroke-width="3.647" filter="url(#prefix__aP)"/><path style="font-variation-settings:normal" d="M639.817 448.992l.098.006c-6.93.679-11.769 6.203-17.722 11.04-1.487.683-36.616 36.998-46.996 47.737 1.284-1.378-10.565 5.124-8.71 3.17 10.12 4.005 56.36-55.154 68.073-60.934 5.355-1.013 13.736-.701 12.027-.765zM658.206 426.108c-4.868 3.945 1.083 16.761 2.563 16.255 0 0-7.053-9.56-2.563-16.255zM673.622 434.757c1.027.257 2.128.33 3.237.283l-.252.04a8.552 8.552 0 01-2.985-.323zM621.624 418.232c-.195.121-.378.227-.582.361l.252-.199zM632.784 413.566l-67.2 66.945c2.855-2.905 57.903-57.816 60.74-60.74 2.307-2.28 4.38-4.283 6.46-6.205z" transform="matrix(.26458 0 0 .26458 -19.714 107.613)" fill="none" stroke="#cecac3" stroke-width="3.647" filter="url(#prefix__aP)"/><path style="font-variation-settings:normal" d="M638.59 422.015c4.863.157-7.537-9.528-4.89-8.34 6.861 3.079 4.495 12.44 3.428 13.153-.885-.938 2.244-9.563 1.463-4.813zM662.583 411.374c.29.201.595.39.918.563l-.652-.29c-.09-.088-.177-.182-.266-.273zM599.44 403.91c-1.039.846-.604 3.769-1.536 4.735 2.095 2.152 2.772 2.243 4.61 4.626-23.493 21.848-45.934 43.068-69.366 63.318.128 1.524.402 3.005.757 4.463l-.039.035.524 1.791.004.018.732 2.508.045-.043c.398 1.212.809 2.423 1.215 3.64l24.053-22.715-5.664 5.473c2.53 1.795 4.613 3.853 5.017 6.436l7.979-8.623c-2.03-1.466-4.49-2.29-5.393-5.118l43.95-41.501c.652 1.882 1.732 3.401 2.913 4.976.862-.68 1.723-1.364 2.584-2.045-18.444 16.149-48.872 49.018-61.812 63.635-2.124 6.893 7.954 12.809 17.115 5.275 5.392-4.946 17.229-18.182 22.649-24.964-1.282 1.738-7.654 10.918-9.008 12.61 3.853.338 7.718.259 11.582.259.5-.464 1-.943 1.5-1.41-9.327 9.651-18.6 19.375-28.471 29.665-24.528 4.717-34.908-29.784-32.412-46.238 21.848-20.005 50.215-44.83 72.033-64.867.337-.241-5.895 4.302-5.56 4.06zM656.417 403.572c-.697.435-1.378.919-2.113 1.33-1.51 3.49-.613 8.178 4.16 9.535-4.942-1-6.233-6.53-3.88-10.426-.153.311-.266.615-.28.89.686-.43 1.397-.905 2.113-1.33zM659.39 402.056c-.25.963-.37 1.9-.348 2.795a8.161 8.161 0 01.21-2.377z" transform="matrix(.26458 0 0 .26458 -19.714 107.613)" fill="none" stroke="#cecac3" stroke-width="3.647" filter="url(#prefix__aP)"/><path style="font-variation-settings:normal" d="M626.331 391.322c-5.647 5.14-18.33 16.868-23.816 21.949.652-.684 8.447-8.007 9.064-8.729l1.979-1.888zM622.081 386.527l2.87 2.695c-.138.115-.278.227-.415.342-5.17 3.735-10.181 6.832-15.564 10.303.032.207.075.398.12.588a13.354 13.354 0 01-1.02-2.749c-1.01.727-2.04 1.434-3.07 2.143a413.108 413.108 0 0017.08-13.322z" transform="matrix(.26458 0 0 .26458 -19.714 107.613)" fill="none" stroke="#cecac3" stroke-width="3.647" filter="url(#prefix__aP)"/><path style="font-variation-settings:normal" d="M646.605 385.22c.255 1.314.923 2.2 1.953 3.455.27.298.531.55.789.776-1.525-.99-2.396-2.41-2.742-4.23zM626.556 382.775c-1.287 1.291-2.58 2.512-4.01 3.367 1.35-1.117 2.689-2.24 4.01-3.367zM648.952 381.61c-.61.283-1.1.664-1.586 1.124.495-.497.913-.856 1.586-1.123zM646.88 379.415c-.226 1.357-.302 2.703-.39 4.211-.014.502.016.934.076 1.334-.25-1.564-.141-3.402.314-5.545z" transform="matrix(.26458 0 0 .26458 -19.714 107.613)" fill="none" filter="url(#prefix__aP)"/><path style="font-variation-settings:normal" d="M613.198 364.24c1.44 3.79 2.727 7.583 3.752 11.373l7.514-6.01c-10.33 9.045-20.767 17.966-31.125 26.76a7448.56 7448.56 0 0023.611-20.75l-.963-2.461c-6.816 6.191-14.037 11.887-21.228 17.629-2.09 1.203-2.635 3.721-1.621 5.754-15.51 13.166-30.807 25.982-45.024 37.996 2.767-11.99 9.408-18.192 18.133-26.48 18.265-15.245 32.031-28.337 46.951-43.811zM672.124 333.91c18.46 44.38 14.725 93.949-.387 134.75-11.315-11.785-19.426-17.304-25.787-19.07 2.217.318 4.196 1 6.285 2.175.516-5.64 4.86-6.168 9.534-8.455-.384-.358-.659-.626-1-.947a14.205 14.205 0 004.675 1.857l2.06-1.672c-.901-.227-1.714-.531-2.483-.87.764.278 1.56.55 2.482.87 3.676-1.05 5.118-3.07 5.705-5.674.196.056.378.095.537.114 2.648.304 6.025.805 7.014-2.547 3.245-6.945.76-13.183-7.078-12.998-2.252.771-3.29 1.803-4.244 3.34-2.617-2.182-5.047-2.287-9.912-.25l-3.346 1.543c-4.96 2.6-10.48 5.761-14.799 7.72 1.338 3.463 4.852 7.746 6.783 9.61.66.637-4.033 3.905-2.473 4.493 3.412-4.965-3.212-10.328-4.31-14.103a1475.386 1475.386 0 00-11.242 10.885c.187-.197-84.945 86.004.562-.59l3.86-4.246 6.82-6.049c-4.122.03-8.21.516-12.096 3.862 1.072-.097 1.847.01 2.53.273-.703-.18-1.495-.228-2.53-.273l-3.584-1.004-11.062 10.523c1.75.381 2.097.946 2.877 2.428l6.486-6.486c-6.469 6.68-12.923 13.376-19.297 20.148-3.812 5.424-9.422 5.8-14.892 6.559l45.562-42.147 3.549 1.418 6.896-3.928-4.738 2.76c-.64 1.879-1.62 4.221.299 5.867l9.506-5.058c-.514-2.367-1.218-4.442-2.67-4.934l4.918-2.8c4.73-.742 9.47-.759 11.514-5.758-4.887 4.859-9.508 4.149-12.426 1.056 3.112 2.931 8.007 3.32 12.426-1.056l.628-1.8c-2.17.89-4.04 1.222-5.613 1.147 1.937-.054 3.777-.458 5.613-1.146l.084-.69-.503-.222c.968.356 2.033.614 3.209.732 3.157-1.746 6.758-4.921 4.586-9.443-1.694-4.376-5.63-5.218-9.444-4.768l-3.238 1.26c-3.837-1.818-7.633-.335-9.264 1.35-.854 1.703-1.348 3.38-1.556 4.98.16-1.706.653-3.41 1.556-4.98-1.532.56-3.101 1.035-4.588 1.708-1.787.89-3.432 1.937-5 3.079-8.123 3.26-14.817 5.61-21.713 9.693l-2.699-2.79-10.379 9.597 23.782-22.457-4.948 4.857 1.53 1.258a21.197 21.197 0 014.761-3.375c-1.653.958-3.172 2.118-4.761 3.375l2.068 4.588c3.255-1.193 6.439-2.5 9.535-4.047l-2.52-5.758c2.534-2.02 5.439-2.862 8.456-3.867a39.922 39.922 0 01-3.01-2.707c4.19 3.345 9.966 3.1 14.252-3.678l.127-1.244c1.483.434 3.41.115 5.998-1.438l1.611-3.076c1-5.346.083-12.232-6.027-12.232-6.516 0-7.118 4.97-7.086 7.086-.097-1.466-.205-2.781.701-4.028l-3.238.54h-4.319c-3.097.945-5.148 2.739-7.464 4.857-.102 3.063.53 5.89 1.648 8.264-1.35-2.498-1.972-5.201-1.648-8.264a91.598 91.598 0 00-8.276 5.582c1.673-1.409 3.292-2.788 5.217-4.053l-1.838-4.113c15.056-13.323 28.371-27.696 41.246-45.113zM668.198 324.165l-11.107 16.067c-9.689 9.02-19.79 18.092-30.05 27.107-2.385-3.59-4.784-7.742-7.09-12.248 1.85-7.16.235-12.748-2.075-20.256l-11.514-30.761c-1.082-14.104.309-23.213 8.72-27.582 8.41-4.37 11.454-4.147 29.265-3.396 17.81.751 39.393 30.026 35.411 33.137 1.123 2.431-12.624 15.43-11.56 17.932zM490.765 265.71c-8.788-18.722-3.052-36.89 4.58-37.398l-7.633.51c-9.069 11.02-8.386 17.076-4.834 29.51z" transform="matrix(.26458 0 0 .26458 -19.714 107.613)" fill="none" stroke="#cecac3" stroke-width="3.647" filter="url(#prefix__aP)"/><path style="font-variation-settings:normal" d="M88.239 156.713c-31.997 13.542-46.247 37.404-38.27 70.03l.18-1.432v0" fill="none" stroke="#cecac3" stroke-width=".965" filter="url(#prefix__aQ)"/><path style="font-variation-settings:normal" d="M152.682 241.498c7.873-7.97 16.627-18.709 16.148-26.628l-.539-.068c-2.389 6.239-4.917 11.007-9.423 15.953-.89.995-1.796 1.974-2.713 2.943m-23 10.865l-2.582 1.279" fill="none" stroke="#cecac3" stroke-width=".965" filter="url(#prefix__aP)"/><path style="font-variation-settings:normal" d="M639.337 273.597c8.596 11.947 23.155 34.288 29.838 48.76" transform="matrix(.26458 0 0 .26458 -19.714 107.613)" fill="none" stroke="#cecac3" stroke-width="3.647" filter="url(#prefix__aP)"/><path style="font-variation-settings:normal" d="M142.836 171.422c.188.196 4.116-.095 4.573.482.651.82.347 1.851-.085 2.747l1.577-.015c1.124-1.11.574-2.084.156-3.148z" fill="url(#prefix__aR)" stroke="#cecac3" stroke-width=".965"/><path style="font-variation-settings:normal" d="M320.888 9.94A255.43 250.393 0 0065.565 260.331a255.43 250.393 0 00255.43 250.392 255.43 250.393 0 00255.43-250.392A255.43 250.393 0 00320.995 9.939a255.43 250.393 0 00-.107 0z" transform="matrix(.26458 0 0 .26458 23.424 1.577)" fill="none" stroke="#cecac3" stroke-width="3.647" filter="url(#prefix__aQ)"/><path style="font-variation-settings:normal" d="M464.803 175.914c-4.92 1.282-8.707 2.679-13.927 6.283-32.329 24.631-18.96 56.549-6.194 85.51-1.488 4.008-3.87 7.455-6.757 10.911l-32.74 30.4c-18.33 19.454-30.793 25.048-29.862 50.19l5.98-4.873c-4.639 3.93-9.179 7.789-13.537 11.53-3.938 4.01-6.706 7.879-8.564 11.656l.29-1.582c-26.707 23.314-47.635 42.712-73.575 67.279-9.753 16.495 8.597 32.403 21.947 24.465l24.465-22.486 31.203-30.487a546.17 546.17 0 003.156 6.201c10.905 11.892 14.794 16.596 30.58 18.35 2.923.534 6.046.131 9.315-1l-1.611.797c5.63 22.873 14.249 29.784 36.98 26.168 4.6-4.001 24.858-20.709 46.58-42.584-11.357 17.35-24.263 33.215-40.498 47.906-17.181 14.054-36.947 25.152-58.906 32.232-21.51 4.615-42.068 8.265-63.233 8.631-3.285-.109-6.593-.28-9.937-.554-35.983-4.615-68.614-15.085-97.002-32.625 2.557 1.377 5.082 2.668 7.26 3.912.52-5 6.592-7.955 11.066-10.81l59.15-38.67 7.25-7.124c-22.953 13.43-46.07 27.8-68.562 42.104-.02.97.1 1.57.38 2.054-.576-.685-.842-1.37-.38-2.054-16.788 10.945-11.559 11.42-28.875 1.525.486.58 1.034 1.14 1.613 1.688-23.901-17.058-44.444-39.69-61.031-68.707-11.497-23.993-19.167-47.234-22.678-70.838-8.125-77.196 25.359-171.88 125.61-212.617 21.247-5.567 42.246-8.413 62.623-8.565 50.438-.375 97.061 15.766 134.203 48.035-8.116.03-16.231-.075-24.35-.513.09 1.019.152 1.969.164 2.892l-.164-2.892c-14.725-.507-29.365-.994-43.63.253-.243 1.602-.32 3.182-.311 4.758-.243-1.448-.342-3.013.31-4.758-7.628-.332-15.263-.253-22.896-.253-5.858-3.418-10.359-6.215-18.063-6.36l-5.341-6.361c-11.256 5.246-9.876 22.876-4.58 37.398 3.956.397 5.972 1.471 8.14-1.78 8.168-2.538 13.517-5.62 20.861-10.94l21.88-1.56 42.486-1.112 1.28-5.1c-.092 1.677-.434 3.304-1.28 5.1 0 0 1.93 1.82 4.324 1.273l33.252 1.381c.488.5 5.14 5.28 6.136 6.323.974 1.02-2.83-9.158 3.48-5.923 2.662-1.515 23.79 2.015 22.954 1.105l40.52 1.311c12.524 1.014 20.613 4.726 21.115 17.809 2.407-3.989 4.586-8.178 4.324-14.502-.112-15.485-34.88-13.962-52.916-14.756l-24.584-2.443c-26.704-25.711-53.535-40.608-93.22-59.248L329.63 26.95l-8.635-.375 54.146 69.579c-26.771-5.827-51.33-7.228-76.364-4.298l-2.966-1.224v0l-.016-1.804-.126-14.366 25.326-47.887c-11.955-1.352-22.157-2.005-31.912-2.826.083-.252.17-.502.252-.756l-3.91.434c-7.926-.72-15.674-1.636-23.932-3.209-8.844-2.795-17.647-5.629-26.125-9.457h0c-4.317 19.674-19.406 33.457-33.82 43.893-21.746 19.12-35.487 30.389-59.22 51.363-87.131 66.496-106.891 192.655-77.66 270.678 45.587 115.3 125.268 180.46 278.829 176.046 62.718-8.9 102.945-22.142 146.537-76.32 41.62-51.727 61.514-81.899 59.076-145.168.461-3.168.636-6.262.455-9.256l-.96-.119c-.33-4.773-.775-9.736-1.335-14.896 1.617-34.147-8.737-56.462-20.62-80.178 9.045-11.984 18.102-23.957 26.222-36.588-.815-4.382-1.645-9.14-4.854-11.437l-30.345 42.691c-.072-.145 3.863-4.88 3.79-5.025l2.45-3.307c-7.508-13.599-17.04-26.586-27.503-37.128-11.97-12.062 4.86 6.542 4.09 5.693 1.216-2.441-28.288-6.79-35.697-5.79z" transform="matrix(.26458 0 0 .26458 23.424 129.674)" fill="none" stroke="#cecac3" stroke-width="3.647" filter="url(#prefix__aS)"/></svg>